grf
version=1
nRows=42
nColumns=19
inDegrees=yes
endheader
time	ground_force_1_vx	ground_force_1_vy	ground_force_1_vz	ground_force_1_px	ground_force_1_py	ground_force_1_pz	ground_moment_1_mx	ground_moment_1_my	ground_moment_1_mz	ground_force_2_vx	ground_force_2_vy	ground_force_2_vz	ground_force_2_px	ground_force_2_py	ground_force_2_pz	ground_moment_2_mx	ground_moment_2_my	ground_moment_2_mz
0.000000	27.215724	1460.122299	-403.290385	0.141778	0.000000	-0.784102	0.000000	12.366438	0.000000	3.004115	1320.933684	319.337551	0.162479	0.000000	-1.567768	0.000000	-11.665559	-0.000000
0.001000	27.349241	1459.414387	-403.316128	0.140893	0.000000	-0.783339	0.000000	12.280259	0.000000	2.766527	1322.662997	319.474267	0.162714	0.000000	-1.567417	0.000000	-11.701572	-0.000000
0.002000	27.496949	1458.780997	-403.338371	0.140781	0.000000	-0.783655	0.000000	12.187319	0.000000	2.525339	1324.431367	319.633066	0.162413	0.000000	-1.568134	0.000000	-11.738100	-0.000000
0.003000	27.660004	1458.235109	-403.355342	0.140783	0.000000	-0.783035	0.000000	12.087437	0.000000	2.281660	1326.226317	319.815331	0.161664	0.000000	-1.568925	0.000000	-11.774757	-0.000000
0.004000	27.839478	1457.787763	-403.365449	0.140352	0.000000	-0.782856	0.000000	11.980547	0.000000	2.036394	1328.036666	320.022419	0.162317	0.000000	-1.568310	0.000000	-11.811218	-0.000000
0.005000	28.036283	1457.447530	-403.367292	0.138988	0.000000	-0.782185	0.000000	11.866690	0.000000	1.790194	1329.852565	320.255600	0.162427	0.000000	-1.566550	0.000000	-11.847254	-0.000000
0.006000	28.251091	1457.220084	-403.359614	0.140119	0.000000	-0.782264	0.000000	11.746042	0.000000	1.543440	1331.665902	320.516053	0.163076	0.000000	-1.567438	0.000000	-11.882755	-0.000000
0.007000	28.484325	1457.107995	-403.341214	0.140000	0.000000	-0.784309	0.000000	11.618921	0.000000	1.296276	1333.470101	320.804841	0.163553	0.000000	-1.567907	0.000000	-11.917688	-0.000000
0.008000	28.736292	1457.111174	-403.310927	0.140303	0.000000	-0.783427	0.000000	11.485751	0.000000	1.048750	1335.259583	321.122832	0.164116	0.000000	-1.567879	0.000000	-11.952037	-0.000000
0.009000	29.007313	1457.227900	-403.267781	0.140183	0.000000	-0.784530	0.000000	11.347008	0.000000	0.800915	1337.029724	321.470645	0.164009	0.000000	-1.566506	0.000000	-11.985756	-0.000000
0.010000	29.297821	1457.455879	-403.211119	0.140873	0.000000	-0.785587	0.000000	11.203198	0.000000	0.552687	1338.776978	321.848673	0.164699	0.000000	-1.569617	0.000000	-12.018757	-0.000000
0.011000	29.608354	1457.793093	-403.140565	0.139029	0.000000	-0.784924	0.000000	11.054830	0.000000	0.303674	1340.498705	322.257156	0.164111	0.000000	-1.568818	0.000000	-12.050937	-0.000000
0.012000	29.939469	1458.237857	-403.055917	0.138589	0.000000	-0.784140	0.000000	10.902399	0.000000	0.053222	1342.193253	322.696206	0.164903	0.000000	-1.566397	0.000000	-12.082200	-0.000000
0.013000	30.291678	1458.788051	-402.957045	0.138793	0.000000	-0.784446	0.000000	10.746394	0.000000	-0.199465	1343.860420	323.165758	0.164664	0.000000	-1.567890	0.000000	-12.112467	-0.000000
0.014000	30.665463	1459.440471	-402.843775	0.138623	0.000000	-0.784427	0.000000	10.587289	0.000000	-0.455214	1345.501349	323.665577	0.164729	0.000000	-1.568247	-0.000000	-12.141674	-0.000000
0.015000	31.061299	1460.190659	-402.715795	0.138445	0.000000	-0.784404	0.000000	10.425517	-0.000000	-0.714816	1347.117963	324.195373	0.165152	0.000000	-1.568768	-0.000000	-12.169757	-0.000000
0.016000	31.479649	1461.032871	-402.572697	0.138245	0.000000	-0.783900	0.000000	10.261449	-0.000000	-0.979036	1348.712864	324.754896	0.164940	0.000000	-1.568242	-0.000000	-12.196660	-0.000000
0.017000	31.920933	1461.960187	-402.414123	0.138315	0.000000	-0.785559	0.000000	10.095404	-0.000000	-1.248665	1350.289406	325.343900	0.165817	0.000000	-1.569205	-0.000000	-12.222338	-0.000000
0.018000	32.385534	1462.964899	-402.239884	0.137310	0.000000	-0.785476	0.000000	9.927645	-0.000000	-1.524539	1351.851232	325.962069	0.165313	0.000000	-1.568250	-0.000000	-12.246764	-0.000000
0.019000	32.873807	1464.039073	-402.049952	0.137401	0.000000	-0.785862	0.000000	9.758413	-0.000000	-1.807532	1353.401706	326.608974	0.165454	0.000000	-1.569083	-0.000000	-12.269942	-0.000000
0.020000	33.386002	1465.175067	-401.844431	0.137487	0.000000	-0.785481	0.000000	9.587983	-0.000000	-2.098502	1354.943962	327.284038	0.166248	0.000000	-1.568747	-0.000000	-12.291916	-0.000000
0.021000	33.922271	1466.365899	-401.623491	0.137094	0.000000	-0.786347	0.000000	9.416687	-0.000000	-2.398255	1356.481335	327.986576	0.166566	0.000000	-1.569025	-0.000000	-12.312775	-0.000000
0.022000	34.482791	1467.605523	-401.387255	0.136233	0.000000	-0.785839	0.000000	9.244853	-0.000000	-2.707662	1358.017502	328.715877	0.167102	0.000000	-1.569168	-0.000000	-12.332654	-0.000000
0.023000	35.067825	1468.889204	-401.135734	0.136574	0.000000	-0.787194	0.000000	9.072736	-0.000000	-3.027817	1359.556111	329.471272	0.166345	0.000000	-1.570969	-0.000000	-12.351741	-0.000000
0.024000	35.677666	1470.213879	-400.868924	0.135508	0.000000	-0.786560	0.000000	8.900505	-0.000000	-3.360054	1361.100408	330.252095	0.167488	0.000000	-1.568986	-0.000000	-12.370279	-0.000000
0.025000	36.312558	1471.577870	-400.587035	0.135715	0.000000	-0.786244	0.000000	8.728272	-0.000000	-3.705818	1362.653416	331.057585	0.168220	0.000000	-1.569805	-0.000000	-12.388552	-0.000000
0.026000	36.972672	1472.980241	-400.290568	0.135194	0.000000	-0.787759	0.000000	8.556106	-0.000000	-4.066527	1364.218241	331.886824	0.167871	0.000000	-1.570061	-0.000000	-12.406838	-0.000000
0.027000	37.658123	1474.420554	-399.980243	0.135179	0.000000	-0.787801	0.000000	8.384040	-0.000000	-4.443477	1365.797877	332.738753	0.168446	0.000000	-1.570278	-0.000000	-12.425385	-0.000000
0.028000	38.368987	1475.898732	-399.657011	0.134362	0.000000	-0.789009	0.000000	8.212059	0.000000	-4.837788	1367.394735	333.612205	0.168641	0.000000	-1.570453	-0.000000	-12.444390	-0.000000
0.029000	39.105256	1477.414712	-399.322170	0.132564	0.000000	-0.788492	0.000000	8.040134	0.000000	-5.250408	1369.010717	334.505941	0.168898	0.000000	-1.571135	-0.000000	-12.463993	-0.000000
0.030000	39.866808	1478.968020	-398.977374	0.133260	0.000000	-0.788270	0.000000	7.868254	0.000000	-5.682168	1370.647751	335.418692	0.168871	0.000000	-1.570124	-0.000000	-12.484299	-0.000000
0.031000	40.653423	1480.557497	-398.624555	0.133176	0.000000	-0.788644	0.000000	7.696445	0.000000	-6.133781	1372.307981	336.349192	0.169936	0.000000	-1.571329	-0.000000	-12.505416	-0.000000
0.032000	41.464809	1482.181719	-398.265899	0.133044	0.000000	-0.789077	0.000000	7.524738	0.000000	-6.605788	1373.993681	337.296173	0.170496	0.000000	-1.571241	-0.000000	-12.527466	-0.000000
0.033000	42.300635	1483.839886	-397.903853	0.132777	0.000000	-0.789563	0.000000	7.353142	0.000000	-7.098528	1375.707118	338.258349	0.170687	0.000000	-1.571233	-0.000000	-12.550555	-0.000000
0.034000	43.160556	1485.532365	-397.541063	0.131694	0.000000	-0.788823	0.000000	7.181630	0.000000	-7.612096	1377.450331	339.234367	0.170823	0.000000	-1.571270	-0.000000	-12.574752	-0.000000
0.035000	44.044174	1487.260539	-397.180206	0.131131	0.000000	-0.789502	0.000000	7.010127	0.000000	-8.146311	1379.225238	340.222780	0.170695	0.000000	-1.572093	-0.000000	-12.600082	-0.000000
0.036000	44.950973	1489.026284	-396.823849	0.131228	0.000000	-0.790785	0.000000	6.838519	0.000000	-8.700783	1381.033937	341.222127	0.171454	0.000000	-1.572608	-0.000000	-12.626561	-0.000000
0.037000	45.880285	1490.831583	-396.474436	0.129831	0.000000	-0.789380	0.000000	6.666677	0.000000	-9.274983	1382.878890	342.231046	0.173175	0.000000	-1.571741	-0.000000	-12.654209	-0.000000
0.038000	46.831275	1492.678074	-396.134335	0.127673	0.000000	-0.789656	0.000000	6.494492	0.000000	-9.868238	1384.763302	343.248311	0.171996	0.000000	-1.572627	-0.000000	-12.683046	-0.000000
0.039000	47.802947	1494.566193	-395.805840	0.130071	0.000000	-0.791288	0.000000	6.321926	0.000000	-10.479718	1386.691197	344.272878	0.172391	0.000000	-1.572977	-0.000000	-12.713079	-0.000000
0.040000	48.794157	1496.494877	-395.491110	0.128854	0.000000	-0.790941	0.000000	6.149028	0.000000	-11.108462	1388.666713	345.303977	0.172537	0.000000	-1.572828	-0.000000	-12.744325	-0.000000
0.041000	49.803595	1498.462371	-395.192091	0.129151	0.000000	-0.790773	0.000000	5.975893	0.000000	-11.753415	1390.693702	346.341190	0.173340	0.000000	-1.573316	-0.000000	-12.776814	-0.000000
